<svg width="92" height="19" viewBox="0 0 92 19" fill="none" xmlns="http://www.w3.org/2000/svg">
<path d="M0.744629 9.12549C0.744629 6.0249 1.57878 3.75033 3.24707 2.30176C4.91536 0.85319 7.36491 0.128906 10.5957 0.128906C13.8346 0.128906 16.276 0.816569 17.9199 2.19189C19.5719 3.56722 20.3979 5.79297 20.3979 8.86914C20.3979 10.4967 20.0806 11.8232 19.4458 12.8486C18.9982 13.5892 18.5181 14.2484 18.0054 14.8262H19.9463C20.2799 14.8262 20.5566 14.9401 20.7764 15.168C20.9961 15.3877 21.106 15.6562 21.106 15.9736V16.9746C21.106 17.292 20.9961 17.5646 20.7764 17.7925C20.5566 18.0122 20.2799 18.1221 19.9463 18.1221H10.5713C7.35677 18.1221 4.91536 17.3978 3.24707 15.9492C1.57878 14.5007 0.744629 12.2261 0.744629 9.12549ZM10.5713 14.8262C14.0544 14.8262 15.7959 12.8405 15.7959 8.86914C15.7959 7.02181 15.3849 5.65462 14.563 4.76758C13.741 3.8724 12.4146 3.4248 10.5835 3.4248C8.76058 3.4248 7.43001 3.90902 6.5918 4.87744C5.76172 5.84587 5.34668 7.26188 5.34668 9.12549C5.34668 10.9891 5.76172 12.4051 6.5918 13.3735C7.43001 14.342 8.75651 14.8262 10.5713 14.8262ZM23.4741 17.1211C22.3999 16.3724 21.8628 15.3145 21.8628 13.9473C21.8628 12.5801 22.3999 11.5303 23.4741 10.7979C24.5565 10.0654 25.9481 9.69922 27.6489 9.69922H31.6895C31.6895 8.74707 31.4901 8.08382 31.0913 7.70947C30.6925 7.33512 29.9927 7.14795 28.9917 7.14795C27.9989 7.14795 27.299 7.39616 26.8921 7.89258C26.4933 8.38086 26.001 8.625 25.415 8.625H23.5962C23.3765 8.625 23.1934 8.55583 23.0469 8.41748C22.9085 8.271 22.8394 8.09196 22.8394 7.88037C22.8394 5.54476 25.057 4.37695 29.4922 4.37695C31.429 4.37695 32.9834 4.81234 34.1553 5.68311C35.3271 6.54574 35.9131 7.88444 35.9131 9.69922V17.2554C35.9131 17.4751 35.8439 17.6541 35.7056 17.7925C35.5672 17.9308 35.3882 18 35.1685 18H32.8125C32.5928 18 32.4137 17.9308 32.2754 17.7925C32.137 17.646 32.0679 17.467 32.0679 17.2554V16.877C30.7821 17.7965 29.2969 18.2523 27.6123 18.2441C25.9359 18.2441 24.5565 17.8698 23.4741 17.1211ZM27.9419 12.4702C27.3722 12.4702 26.9206 12.6086 26.5869 12.8853C26.2614 13.1619 26.0986 13.52 26.0986 13.9595C26.0986 14.3989 26.2695 14.7611 26.6113 15.0459C26.9531 15.3307 27.4373 15.4731 28.064 15.4731C29.3172 15.4731 30.5257 15.1069 31.6895 14.3745V12.4702H27.9419ZM38.1714 8.31982C38.1714 5.69124 40.2913 4.37695 44.5312 4.37695C48.9909 4.37695 51.2207 5.54476 51.2207 7.88037C51.2207 8.09196 51.1515 8.271 51.0132 8.41748C50.8748 8.55583 50.6958 8.625 50.4761 8.625H48.6572C48.0713 8.625 47.5789 8.38086 47.1802 7.89258C46.7814 7.39616 45.9961 7.14795 44.8242 7.14795C43.2129 7.14795 42.4072 7.53857 42.4072 8.31982C42.4072 8.68604 42.7205 8.99121 43.3472 9.23535C43.9819 9.47949 44.751 9.69515 45.6543 9.88232C46.5658 10.0614 47.4731 10.2933 48.3765 10.5781C49.2798 10.863 50.0448 11.3187 50.6714 11.9453C51.3062 12.5638 51.6235 13.3491 51.6235 14.3013C51.6235 16.9299 49.3856 18.2441 44.9097 18.2441C40.4338 18.2441 38.1958 17.0804 38.1958 14.7529C38.1958 14.5332 38.265 14.3542 38.4033 14.2158C38.5498 14.0693 38.7329 13.9961 38.9526 13.9961H40.7715C41.3574 13.9961 41.8498 14.2443 42.2485 14.7407C42.6473 15.229 43.4326 15.4731 44.6045 15.4731C46.4681 15.4731 47.3999 15.0825 47.3999 14.3013C47.3999 13.9351 47.0825 13.6299 46.4478 13.3857C45.8211 13.1416 45.0521 12.9259 44.1406 12.7388C43.2292 12.5435 42.3218 12.3075 41.4185 12.0308C40.5233 11.7459 39.7583 11.2902 39.1235 10.6636C38.4888 10.0369 38.1714 9.2557 38.1714 8.31982ZM55.0415 16.4863C53.772 15.3145 53.1372 13.5892 53.1372 11.3105C53.1372 9.02376 53.772 7.2985 55.0415 6.13477C56.311 4.96289 58.134 4.37695 60.5103 4.37695C62.8947 4.37695 64.7217 4.96289 65.9912 6.13477C67.2607 7.2985 67.8955 9.02376 67.8955 11.3105C67.8955 13.5892 67.2607 15.3145 65.9912 16.4863C64.7217 17.6582 62.8947 18.2441 60.5103 18.2441C58.134 18.2441 56.311 17.6582 55.0415 16.4863ZM58.1299 8.13672C57.6253 8.7959 57.373 9.84977 57.373 11.2983C57.373 12.7469 57.6253 13.8049 58.1299 14.4722C58.6344 15.1395 59.4279 15.4731 60.5103 15.4731C61.6007 15.4731 62.3983 15.1395 62.9028 14.4722C63.4155 13.8049 63.6719 12.7469 63.6719 11.2983C63.6719 9.84977 63.4155 8.7959 62.9028 8.13672C62.3983 7.47754 61.6007 7.14795 60.5103 7.14795C59.4279 7.14795 58.6344 7.47754 58.1299 8.13672ZM79.9561 3.35156L78.2715 3.14404C76.652 3.14404 75.5981 3.36377 75.1099 3.80322C74.6216 4.23454 74.3774 5.13379 74.3774 6.50098V6.69629H78.7964C79.0161 6.69629 79.1951 6.76953 79.3335 6.91602C79.48 7.05436 79.5532 7.2334 79.5532 7.45312V8.90576C79.5532 9.12549 79.48 9.30452 79.3335 9.44287C79.1951 9.58122 79.0161 9.65039 78.7964 9.65039H74.3774V17.2554C74.3774 17.4751 74.3042 17.6541 74.1577 17.7925C74.0194 17.9308 73.8444 18 73.6328 18H70.8984C70.6787 18 70.4997 17.9308 70.3613 17.7925C70.223 17.6541 70.1538 17.4751 70.1538 17.2554V6.50098C70.1538 4.23047 70.6706 2.62321 71.7041 1.6792C72.7376 0.727051 74.5524 0.250977 77.1484 0.250977C78.4831 0.250977 79.4149 0.299805 79.9438 0.397461C80.4728 0.495117 80.8065 0.617188 80.9448 0.763672C81.0832 0.902018 81.1523 1.06478 81.1523 1.25195V2.59473C81.1523 2.81445 81.0791 2.99756 80.9326 3.14404C80.7943 3.28239 80.6193 3.35156 80.4077 3.35156H79.9561ZM88.6597 15.3511L90.332 15.2046H90.7837C91.0034 15.2046 91.1825 15.2738 91.3208 15.4121C91.4673 15.5505 91.5405 15.7295 91.5405 15.9492V17.2554C91.5405 17.4344 91.4673 17.5972 91.3208 17.7437C91.1825 17.882 91.0034 17.9674 90.7837 18C89.9536 18.1628 88.8713 18.2441 87.5366 18.2441C84.0373 18.2441 82.2876 16.4131 82.2876 12.751V1.25195C82.2876 1.03223 82.3568 0.85319 82.4951 0.714844C82.6416 0.568359 82.8206 0.495117 83.0322 0.495117H85.7666C85.9782 0.495117 86.1532 0.568359 86.2915 0.714844C86.438 0.85319 86.5112 1.03223 86.5112 1.25195V5.3291H89.917C90.1286 5.3291 90.3035 5.39827 90.4419 5.53662C90.5884 5.67497 90.6616 5.854 90.6616 6.07373V7.52637C90.6616 7.74609 90.5884 7.92513 90.4419 8.06348C90.3035 8.20182 90.1286 8.271 89.917 8.271H86.5112V12.751C86.5112 13.5811 86.7065 14.224 87.0972 14.6797C87.4878 15.1273 88.0086 15.3511 88.6597 15.3511Z" fill="white"/>
</svg>
